<svg xmlns="http://www.w3.org/2000/svg" width="28" height="28" viewBox="0 0 28 28"><path stroke="#000" stroke-miterlimit="10" d="M84.813-3.533c-.766 0-1.51.091-2.226.255 4.394 1.011 7.671 4.942 7.671 9.643s-3.277 8.632-7.671 9.642c.716.165 1.46.255 2.226.255 5.466 0 9.896-4.431 9.896-9.896s-4.43-9.899-9.896-9.899z" fill="none"/><circle stroke="#000" stroke-miterlimit="10" cx="14.456" cy="14.102" r="7.434" fill="none"/><path stroke="#000" stroke-miterlimit="10" fill="none" d="M14.5 7v-7M14.5 28v-7M22 14.5h6M0 14.5h7M19.485 19.235l4.955 4.955M19.485 19.235M9.325 9.074M3.903 3.653l5.422 5.421M9.228 19.235l-4.954 4.955M24.702 3.762l-5.312 5.313"/></svg>