<svg xmlns="http://www.w3.org/2000/svg" width="207" height="208" viewBox="0 0 207 208"><circle stroke="#000" stroke-miterlimit="10" cx="105" cy="103.3" r="37.8" fill="none"/><circle stroke="#000" stroke-miterlimit="10" cx="105" cy="103.3" r="30.4" fill="none"/><g stroke="#000" stroke-miterlimit="10" fill="none"><path d="M60.1 103.8v-.3h-53.6v2h53.6v-1.7zM73.6 71.2l-37.2-37.2-1.4 1.4 37.2 37.2 1.4-1.4zM104.5 58.4h1v-51.9h-2v51.9h1zM137.8 72.6l37.2-37.2-1.4-1.4-37.2 37.2 1.4 1.4zM135.7 136.1l37.9 37.9 1.4-1.4-37.9-37.9c-.4.5-.9 1-1.4 1.4zM149.9 103.5v2h52.6v-2h-52.6zM104.5 148.3h-1v54.2h2v-54.2h-1zM72.9 134.7l-37.9 37.9 1.4 1.4 37.9-37.9c-.5-.4-1-.9-1.4-1.4z"/></g></svg>